<svg width="223" height="56" viewBox="0 0 223 56" fill="none" xmlns="http://www.w3.org/2000/svg"><g clip-path="url(#clip0)"><path d="M28.467 35.35h-6.184l5.134-18.433h13.416l-1.166 4.316h-7.35L31.5 24.5l-.817 2.917L33.6 24.5h3.85l-1.167 4.317h-6.066l-1.75 6.533zm18.2-12.833L43.05 35.35H37.8l3.617-12.833h5.25zm1.05-3.85c0 1.166-.934 2.216-2.684 2.216-1.633 0-2.683-1.05-2.683-2.216 0-1.05.933-2.334 2.683-2.334 1.517.117 2.684 1.167 2.684 2.334zM60.083 26.6c-.583-.35-1.516-1.05-3.033-1.05-2.917 0-4.083 2.45-4.083 4.083 0 .234 0 .817.233 1.4.467 1.05 1.517 1.517 3.033 1.517 1.167 0 2.8-.35 3.734-.7l-3.5 3.733c-.584.117-1.167.35-2.334.35-3.85 0-6.65-2.333-6.65-5.833 0-3.733 2.917-7.817 8.75-7.817a14.8 14.8 0 014.667.817l-.817 3.5zm5.484-9.567h5.25l-2.334 8.4 3.034-2.916c.7-.234 1.4-.35 2.333-.35 2.1 0 3.617 1.166 3.617 2.916 0 .467-.234 1.4-.467 2.1l-2.333 8.284h-5.134L71.4 28.7c.117-.583.35-1.167.35-1.517 0-.816-.583-1.4-1.517-1.4-.7 0-1.516.35-1.983.7l-2.567 9.1h-5.25l5.134-18.55zm19.25 10.384c.233-.467.583-1.4 1.516-1.867.35-.233.817-.35 1.167-.35.817 0 1.75.467 1.75 1.867v.466h-4.433v-.116zm8.866 2.45c.117-.584.35-1.517.35-2.334 0-3.266-2.566-5.483-6.416-5.483-5.25 0-8.4 3.617-8.4 7.467 0 1.983.816 3.616 2.1 4.666 1.75 1.4 3.966 1.517 5.133 1.517 1.517 0 2.45-.233 3.15-.35l3.617-3.733c-1.4.466-3.15.933-4.784.933-2.333 0-3.85-.7-3.966-2.683h9.216zm2.45-3.734l3.034-3.616.35-1.4 5.833-2.217-1.05 3.617h2.8l-.933 3.616h-2.8l-1.05 3.5c-.117.467-.234.934-.234 1.4 0 .817.7 1.284 1.75 1.284.584 0 1.984-.234 2.45-.35l-3.383 3.5c-.583.116-1.4.35-2.217.35-2.566 0-4.083-1.517-4.083-3.384 0-.466.117-1.166.233-1.633l1.284-4.667h-1.984zm24.5.584l-3.616 3.5h-8.867l3.5-3.5h8.983zm9.45.35L131.717 21h1.75c.816 0 1.4 0 1.75.583.233.234.233.584.233.934 0 .583-.35 1.516-1.633 1.75-.35.116-.7.116-1.05.116l-2.684 2.684zM121.8 35.35h10.267c1.633 0 3.5 0 5.25-1.517 1.4-1.05 2.1-2.683 2.1-4.083 0-1.283-.584-2.333-1.284-2.917-.466-.466-1.05-.583-1.283-.7 2.333-.466 4.2-2.216 4.2-4.55 0-3.383-3.15-4.55-5.833-4.55h-8.284L121.8 35.35zm9.333-7.933c.817 0 1.75 0 2.334.816.116.234.233.584.233.934 0 .466-.117 1.633-1.867 2.1-.466.116-1.05.233-2.1.233h-.933l1.05-3.967h1.283v-.116zm19.367 3.966c0 .234-.117.467-.117.584-.233.233-.7.466-1.516.466-.817 0-1.867-.35-1.867-1.75s1.05-5.25 4.2-5.25c.35 0 .7 0 .933.117l-1.633 5.833zm7.117-7.816c-.817-.35-1.284-.7-2.334-.934-1.05-.35-2.333-.466-3.616-.466-6.767 0-9.8 5.6-9.8 9.216 0 1.4.35 2.567 1.166 3.384.934 1.05 2.217 1.05 2.917 1.05.583 0 1.167-.117 1.517-.234l2.683-2.566c0 .35-.117.7-.117 1.283 0 .467.117.933.234 1.283h4.666c0-.233-.116-.466-.116-.933 0-.7.116-1.4.35-1.867l2.45-9.216zm14.35 11.783h-5.25l.816-2.917-3.033 3.034c-.583.116-1.283.35-2.1.35-2.217 0-3.733-1.167-3.733-3.15 0-.584.116-1.167.35-1.984l2.216-8.166h5.25l-1.983 7c-.117.35-.35 1.05-.35 1.516 0 .7.467 1.284 1.4 1.284.583 0 1.4-.234 1.983-.7l2.567-9.1h5.25l-3.383 12.833zm16.916-8.75c-.583-.35-1.516-1.05-3.033-1.05-2.917 0-4.083 2.45-4.083 4.083 0 .234 0 .817.233 1.4.467 1.05 1.517 1.517 3.033 1.517 1.167 0 2.8-.35 3.734-.7l-3.5 3.733c-.584.117-1.167.35-2.334.35-3.85 0-6.65-2.333-6.65-5.833 0-3.733 2.917-7.817 8.75-7.817a14.8 14.8 0 014.667.817l-.817 3.5zm5.484-9.567h5.25l-2.334 8.4 3.034-2.916c.7-.234 1.4-.35 2.333-.35 2.1 0 3.617 1.166 3.617 2.916 0 .467-.234 1.4-.467 2.1l-2.333 8.284h-5.134l1.984-6.767c.116-.583.35-1.167.35-1.517 0-.816-.584-1.4-1.517-1.4-.7 0-1.517.35-1.983.7l-2.567 9.1h-5.25l5.017-18.55zm19.366 10.384c.234-.467.584-1.4 1.517-1.867.35-.233.817-.35 1.167-.35.816 0 1.75.467 1.75 1.867v.466h-4.434v-.116zm8.75 2.45c.117-.584.35-1.517.35-2.334 0-3.266-2.566-5.483-6.416-5.483-5.25 0-8.4 3.617-8.4 7.467 0 1.983.816 3.616 2.1 4.666 1.75 1.4 3.966 1.517 5.133 1.517 1.517 0 2.45-.233 3.15-.35l3.617-3.733c-1.4.466-3.15.933-4.784.933-2.333 0-3.85-.7-3.966-2.683h9.216z" fill="#475257"/><path d="M26.367 51.567C12.833 50.633 5.833 42 9.917 28.583c.583-1.983 1.75-3.5 1.983-3.733-.35.35-1.517 1.75-2.45 3.733-5.833 12.367-.817 24.85 12.717 26.484 14.466 1.75 28.583-6.884 33.133-13.534C52.5 45.5 38.733 52.5 26.367 51.567z" fill="#475257"/><path d="M59.033 4.783c-14.583-7.7-37.45-5.6-50.4 9.567-15.05 17.5-6.766 34.417-1.516 38.617C4.317 50.75.583 39.083 4.9 28.35c1.867-5.017 4.9-9.217 7.35-12.017C22.75 4.2 40.6-1.517 59.033 4.783zM127.75 45.15h-2.45l-1.4 6.883h-1.983l1.4-6.883h-2.45l.35-1.633h6.883l-.35 1.633zm3.15 7.117c-1.05 0-1.75-.234-2.333-.7-.584-.467-.817-1.167-.817-1.984 0-.583.117-1.166.233-1.633.117-.467.467-.933.817-1.283.35-.35.7-.7 1.167-.817.466-.117 1.05-.35 1.633-.35.933 0 1.517.233 1.983.583.467.35.7.934.7 1.75 0 .234 0 .467-.116.817 0 .233-.117.467-.234.7H129.5v.233c0 .467.117.817.467 1.05.233.234.7.35 1.283.35.467 0 .817-.116 1.167-.233.35-.117.7-.35.933-.467h.233l-.35 1.634c-.35.233-.7.35-1.166.35H130.9zm1.517-4.317v-.467c0-.35-.117-.583-.234-.7-.116-.116-.466-.233-.7-.233-.35 0-.7.117-.933.35a2.535 2.535 0 00-.583.933h2.45v.117zm1.633-5.483l-2.333 2.1h-1.4l1.633-2.217 2.1.117zm4.783.583l-1.866 8.983H135.1l1.867-8.983h1.866zm3.5 9.217c-1.05 0-1.75-.234-2.333-.7-.583-.467-.817-1.167-.817-1.984 0-.583.117-1.166.234-1.633.116-.467.466-.933.816-1.283.35-.35.7-.7 1.167-.817.467-.117 1.05-.35 1.633-.35.934 0 1.517.233 1.984.583.466.35.7.934.7 1.75 0 .234 0 .467-.117.817 0 .233-.117.467-.233.7h-4.434v.233c0 .467.117.817.467 1.05.233.234.7.35 1.283.35.467 0 .817-.116 1.167-.233.35-.117.7-.35.933-.467h.234l-.35 1.634c-.35.233-.7.35-1.167.35h-1.167zm1.4-4.317v-.467c0-.35-.116-.583-.233-.7-.117-.116-.467-.233-.7-.233-.35 0-.7.117-.933.35a2.537 2.537 0 00-.584.933h2.45v.117zm1.634-5.483l-2.334 2.1h-1.4l1.634-2.217 2.1.117zm3.266 9.8c-.466 0-1.05 0-1.516-.117-.467-.117-.817-.233-1.05-.35l.35-1.75h.116l.234.233c.116.117.233.234.466.234.234.116.35.116.7.233.234.117.467.117.817.117.467 0 .7 0 .933-.117.234-.117.35-.233.35-.467 0-.116-.116-.233-.233-.35-.117-.116-.467-.233-.933-.35-.817-.233-1.4-.466-1.634-.7-.35-.233-.466-.7-.466-1.05 0-.7.35-1.283.933-1.75.583-.466 1.4-.583 2.45-.583.467 0 .933 0 1.283.117.467.116.817.233.934.35l-.35 1.633h-.117c-.233-.233-.583-.35-.933-.467-.35-.116-.7-.233-1.05-.233-.35 0-.7 0-.934.117-.233.116-.35.233-.35.466 0 .117.117.35.234.35.233.117.466.234.933.234.7.233 1.283.35 1.633.7.35.233.467.7.467 1.166 0 .7-.35 1.284-.933 1.75-.467.35-1.284.584-2.334.584zm11.667-6.65l-1.4 6.533h-1.867l.117-.7c-.233.117-.35.233-.583.35-.234.117-.35.233-.467.233-.233.117-.35.117-.583.234-.234.116-.35 0-.467 0-.467 0-.933-.117-1.167-.467-.35-.233-.466-.7-.466-1.167v-.35c0-.116 0-.233.116-.466l.934-4.2h1.866l-.7 3.266c0 .234-.116.467-.116.584v.466c0 .234 0 .467.116.584.117.116.35.116.584.116.116 0 .35 0 .583-.116l.7-.35.933-4.55h1.867zm5.833 1.983h-.116c-.117 0-.234 0-.35-.117h-.467c-.233 0-.467 0-.7.117-.233 0-.467.117-.7.233l-.933 4.317H161l1.4-6.533h1.867l-.234.933 1.05-.7c.35-.233.7-.233 1.05-.233h.467l-.467 1.983zm7.7-1.983l-3.616 6.533H168l-.933-6.533h1.983l.467 4.433 2.216-4.433h2.1zm3.267 6.65c-1.05 0-1.75-.234-2.333-.7-.584-.467-.817-1.167-.817-1.984 0-.583.117-1.166.233-1.633.117-.467.467-.933.817-1.283.35-.35.7-.7 1.167-.817.466-.117 1.05-.35 1.633-.35.933 0 1.517.233 1.983.583.467.35.7.934.7 1.75 0 .234 0 .467-.116.817 0 .233-.117.467-.234.7H175.7v.233c0 .467.117.817.467 1.05.233.234.7.35 1.283.35.467 0 .817-.116 1.167-.233.35-.117.7-.35.933-.467h.233l-.35 1.634c-.35.233-.7.35-1.166.35H177.1zm1.517-4.317v-.467c0-.35-.117-.583-.234-.7-.116-.116-.466-.233-.7-.233-.35 0-.7.117-.933.35a2.535 2.535 0 00-.583.933h2.45v.117zm5.833-2.333l-1.4 6.533h-1.867l1.4-6.533h1.867zm.583-2.567l-.35 1.633H182.7l.35-1.633h1.983zm3.85 0l-1.866 8.983h-1.867l1.867-8.983h1.866zm3.967 0l-1.867 8.983h-1.866l1.866-8.983h1.867zm3.85 8.284c-.117.116-.233.233-.467.35-.116.116-.35.233-.466.233-.234.116-.35.116-.584.233-.116 0-.466.117-.7.117-.466 0-.933-.117-1.166-.467-.35-.35-.467-.7-.467-1.166 0-.467.117-.934.35-1.284.233-.35.583-.583.933-.817.35-.233.934-.35 1.4-.466.584-.117 1.167-.117 1.867-.233v-.35a.642.642 0 00-.35-.584c-.233-.117-.583-.117-1.05-.117-.35 0-.7 0-1.05.117-.35.117-.7.233-.817.233h-.116l.233-1.516c.233-.117.583-.117 1.05-.233.467-.117.933-.117 1.4-.117.933 0 1.633.116 1.983.35.467.233.7.7.7 1.283v.7l-.933 4.433h-1.867l.117-.7zm.583-2.334c-.35 0-.7.117-.933.117-.35 0-.583.117-.7.233-.233.117-.35.233-.467.35-.116.117-.116.35-.116.583 0 .234.116.35.233.467.117.117.35.117.7.117.233 0 .35 0 .583-.117.234-.117.467-.233.584-.35l.116-1.4zm10.15-1.983v.35c0 .117 0 .233-.116.467l-.934 4.2h-1.866l.7-3.267c0-.234.116-.467.116-.584v-.466c0-.233 0-.467-.116-.584-.117-.116-.35-.116-.584-.116-.116 0-.35 0-.466.116l-.7.35-.934 4.55h-1.866l1.4-6.533h1.866l-.116.7 1.05-.7c.35-.117.7-.233 1.05-.233.583 0 .933.116 1.283.466 0 .35.233.817.233 1.284zm3.967 5.25c-.35 0-.817 0-1.167-.117-.35-.117-.7-.233-.933-.467-.233-.233-.467-.466-.583-.816-.117-.35-.234-.7-.234-1.167 0-.583.117-1.167.35-1.633.234-.467.467-.934.817-1.284.35-.35.817-.7 1.283-.816.467-.234 1.05-.35 1.634-.35.35 0 .7 0 1.05.116.35.117.7.234.933.35l-.35 1.75h-.233c-.234-.233-.467-.466-.7-.583a2.205 2.205 0 00-.934-.233c-.583 0-1.05.233-1.4.7a2.866 2.866 0 00-.583 1.75c0 .466.117.816.35 1.05.233.233.583.35 1.05.35.35 0 .7-.117 1.05-.234.35-.116.583-.35.817-.583h.233l-.35 1.75c-.35.233-.7.35-1.05.35-.233 0-.583.117-1.05.117zm6.883 0c-1.05 0-1.75-.234-2.333-.7-.583-.467-.817-1.167-.817-1.984 0-.583.117-1.166.234-1.633.116-.467.466-.933.816-1.283.35-.35.7-.7 1.167-.817.467-.117 1.05-.35 1.633-.35.934 0 1.517.233 1.984.583.466.35.7.934.7 1.75 0 .234 0 .467-.117.817 0 .233-.117.467-.233.7H217v.233c0 .467.117.817.467 1.05.233.234.7.35 1.283.35.467 0 .817-.116 1.167-.233.35-.117.7-.35.933-.467h.233l-.35 1.634c-.35.233-.7.35-1.166.35h-1.284zm1.517-4.317v-.467c0-.35-.117-.583-.233-.7-.117-.116-.467-.233-.7-.233-.35 0-.7.117-.934.35a2.548 2.548 0 00-.583.933h2.45v.117z" fill="#E16406"/></g><defs><clipPath id="clip0"><path fill="#fff" d="M0 0h222.833v56H0z"/></clipPath></defs></svg>